<?xml version="1.0" encoding="UTF-8"?>
<!DOCTYPE svg PUBLIC "-//W3C//DTD SVG 1.1//EN" "http://www.w3.org/Graphics/SVG/1.1/DTD/svg11.dtd">
<svg xmlns="http://www.w3.org/2000/svg" version="1.1" width="1748px" height="1349px" style="shape-rendering:geometricPrecision; text-rendering:geometricPrecision; image-rendering:optimizeQuality; fill-rule:evenodd; clip-rule:evenodd" xmlns:xlink="http://www.w3.org/1999/xlink">
<g><path style="opacity:0.996" fill="#2966b1" d="M 410.5,-0.5 C 421.833,-0.5 433.167,-0.5 444.5,-0.5C 534.861,4.53162 616.194,34.0316 688.5,88C 707.934,104.099 726.101,121.599 743,140.5C 803.081,208.576 862.414,277.243 921,346.5C 1002.73,436.569 1085.56,525.736 1169.5,614C 1236.87,667.543 1312.37,683.376 1396,661.5C 1473.14,636.697 1526.8,586.697 1557,511.5C 1585.32,427.382 1573.65,349.382 1522,277.5C 1461.27,203.021 1383.1,172.521 1287.5,186C 1240.41,195.273 1203.24,219.44 1176,258.5C 1160.09,288.711 1154.92,320.711 1160.5,354.5C 1148.79,354.832 1137.12,354.332 1125.5,353C 1110.3,349.821 1098.14,341.988 1089,329.5C 1076.74,310.307 1067.74,289.64 1062,267.5C 1055.04,284.593 1045.21,299.76 1032.5,313C 1020.28,323.857 1005.94,329.857 989.5,331C 977.821,331.602 966.154,331.435 954.5,330.5C 950.765,294.24 955.931,259.24 970,225.5C 993.68,167.32 1030.51,119.154 1080.5,81C 1179.59,8.73769 1289.59,-15.2623 1410.5,9C 1535.44,37.6733 1629.94,107.173 1694,217.5C 1728.32,280.948 1746.16,348.615 1747.5,420.5C 1747.5,421.833 1747.5,423.167 1747.5,424.5C 1743.17,568.002 1683.84,682.502 1569.5,768C 1459.82,842.505 1340.48,863.505 1211.5,831C 1140.45,810.995 1078.79,775.329 1026.5,724C 981.667,680.5 937.5,636.333 894,591.5C 819.57,509.067 744.403,427.233 668.5,346C 571.585,263.109 460.919,237.109 336.5,268C 293.896,279.471 254.896,298.138 219.5,324C 189.263,348.296 167.763,378.796 155,415.5C 141.892,464.505 154.392,505.672 192.5,539C 210.576,553.706 230.909,564.206 253.5,570.5C 260.886,606.262 268.719,641.928 277,677.5C 282.576,689.397 291.909,696.397 305,698.5C 314.77,697.789 321.104,692.789 324,683.5C 324.17,647.929 324.67,612.429 325.5,577C 336.939,575.298 347.772,571.798 358,566.5C 386.27,600.919 421.104,609.752 462.5,593C 467.001,590.584 471.334,587.917 475.5,585C 481.729,579.598 487.729,574.098 493.5,568.5C 503.73,573.058 514.397,576.058 525.5,577.5C 525.333,612.168 525.5,646.835 526,681.5C 530.264,692.885 538.431,697.385 550.5,695C 563.096,690.738 571.262,682.238 575,669.5C 582.345,635.788 589.845,602.121 597.5,568.5C 620.105,561.369 640.105,549.869 657.5,534C 666.364,525.47 674.864,516.637 683,507.5C 692.023,494.107 701.523,481.107 711.5,468.5C 747.82,504.987 783.987,541.654 820,578.5C 789.715,656.147 740.548,719.314 672.5,768C 559.897,843.989 437.897,863.989 306.5,828C 170.798,783.91 77.9644,695.077 28,561.5C -12.8073,434.766 0.526067,314.099 68,199.5C 148.802,76.6912 262.969,10.0246 410.5,-0.5 Z M 244.5,173.5 C 273.95,174.743 288.117,190.076 287,219.5C 283.061,237.106 272.227,247.606 254.5,251C 228.237,251.741 213.237,239.074 209.5,213C 211.557,191.119 223.224,177.953 244.5,173.5 Z M 597.5,173.5 C 620.793,172.965 635.293,183.965 641,206.5C 642.501,230.328 631.668,245.161 608.5,251C 582.26,251.767 567.26,239.1 563.5,213C 565.436,191.575 576.769,178.408 597.5,173.5 Z"/></g>
<g><path style="opacity:0.986" fill="#2966b1" d="M 415.5,338.5 C 435.684,335.966 454.018,340.466 470.5,352C 483.7,365.198 484.867,379.364 474,394.5C 460.567,406.091 444.9,411.758 427,411.5C 411.468,411.745 397.301,407.578 384.5,399C 371.986,388.315 369.152,375.481 376,360.5C 386.193,347.82 399.36,340.487 415.5,338.5 Z"/></g>
<g><path style="opacity:0.978" fill="#2966b1" d="M 422.5,498.5 C 430.807,510.389 439.64,522.056 449,533.5C 455.531,540.365 462.364,546.865 469.5,553C 452.697,570.953 432.364,576.62 408.5,570C 397.682,566.014 388.682,559.514 381.5,550.5C 398.178,535.495 411.844,518.161 422.5,498.5 Z"/></g>
<g><path style="opacity:1" fill="#152344" d="M 862.5,966.5 C 885.194,964.085 899.694,973.751 906,995.5C 906.667,1102.83 906.667,1210.17 906,1317.5C 901.5,1336.17 889.667,1345.83 870.5,1346.5C 853.092,1345.58 841.592,1336.92 836,1320.5C 835.333,1211.17 835.333,1101.83 836,992.5C 840.209,979.053 849.042,970.386 862.5,966.5 Z"/></g>
<g><path style="opacity:0.999" fill="#152344" d="M 353.5,1348.5 C 348.167,1348.5 342.833,1348.5 337.5,1348.5C 314.779,1344.29 298.612,1331.62 289,1310.5C 269.333,1243.5 249.667,1176.5 230,1109.5C 210.333,1176.83 190.667,1244.17 171,1311.5C 161.872,1331.48 146.705,1343.81 125.5,1348.5C 118.167,1348.5 110.833,1348.5 103.5,1348.5C 81.9907,1343.5 67.4907,1330.5 60,1309.5C 40.0016,1217 19.8349,1124.66 -0.5,1032.5C -0.5,1026.83 -0.5,1021.17 -0.5,1015.5C 7.78112,993.689 23.4478,985.522 46.5,991C 63.9049,998.764 73.0716,1012.26 74,1031.5C 88.8722,1104.86 103.872,1178.19 119,1251.5C 140.975,1175.6 162.642,1099.6 184,1023.5C 196.041,995.585 216.875,985.419 246.5,993C 262.348,999.513 272.515,1011.01 277,1027.5C 297.706,1101.99 318.873,1176.33 340.5,1250.5C 357.351,1171.1 374.517,1091.76 392,1012.5C 402.457,993.025 418.623,985.525 440.5,990C 463.261,998.672 472.761,1015.17 469,1039.5C 446.823,1128.54 424.489,1217.54 402,1306.5C 393.96,1330.05 377.793,1344.05 353.5,1348.5 Z"/></g>
<g><path style="opacity:0.999" fill="#152344" d="M 983.5,1063.5 C 1006.18,1061.37 1021.01,1071.04 1028,1092.5C 1028.67,1165.83 1028.67,1239.17 1028,1312.5C 1020.03,1335.11 1004.2,1344.28 980.5,1340C 966.394,1334.89 957.56,1325.06 954,1310.5C 953.333,1238.5 953.333,1166.5 954,1094.5C 957.579,1078.09 967.413,1067.76 983.5,1063.5 Z"/></g>
<g><path style="opacity:0.999" fill="#152344" d="M 601.5,1064.5 C 642.849,1061.22 677.682,1074.55 706,1104.5C 706.95,1087.55 715.45,1076.39 731.5,1071C 753.208,1067.27 767.708,1075.77 775,1096.5C 775.667,1171.17 775.667,1245.83 775,1320.5C 767.715,1342.06 752.882,1350.56 730.5,1346C 712.541,1338.6 704.375,1325.1 706,1305.5C 666.455,1344.48 620.621,1354.31 568.5,1335C 520.745,1310.07 493.911,1270.57 488,1216.5C 483.161,1165.98 499.661,1124.14 537.5,1091C 556.588,1076.59 577.921,1067.75 601.5,1064.5 Z M 629.5,1127.5 C 675.853,1131.19 701.52,1156.19 706.5,1202.5C 704.475,1234.41 689.141,1257.25 660.5,1271C 620.259,1284.03 588.759,1272.87 566,1237.5C 549.013,1197.61 557.846,1164.78 592.5,1139C 604.057,1132.2 616.391,1128.37 629.5,1127.5 Z"/></g>
<g><path style="opacity:0.999" fill="#152344" d="M 1098.5,1065.5 C 1124.59,1064.1 1139.26,1076.27 1142.5,1102C 1142.37,1113.59 1137.7,1122.92 1128.5,1130C 1101.1,1143.61 1072.1,1149.11 1041.5,1146.5C 1038.37,1103.67 1057.37,1076.67 1098.5,1065.5 Z"/></g>
<g><path style="opacity:0.999" fill="#152344" d="M 1414.5,1348.5 C 1408.17,1348.5 1401.83,1348.5 1395.5,1348.5C 1378.04,1342.86 1367.87,1330.86 1365,1312.5C 1331.08,1343.03 1291.91,1352.86 1247.5,1342C 1209.68,1330.85 1188.52,1305.68 1184,1266.5C 1183.33,1209.17 1183.33,1151.83 1184,1094.5C 1191.85,1073.15 1207.02,1064.65 1229.5,1069C 1241.06,1073.56 1248.9,1081.73 1253,1093.5C 1254.31,1144.47 1254.97,1195.47 1255,1246.5C 1259.07,1260.9 1268.24,1270.4 1282.5,1275C 1299.85,1279.62 1317.19,1279.62 1334.5,1275C 1352.88,1266.46 1363.04,1251.96 1365,1231.5C 1365.33,1188.83 1365.67,1146.17 1366,1103.5C 1370.6,1082.57 1383.6,1071.23 1405,1069.5C 1425.51,1071.01 1438.51,1081.68 1444,1101.5C 1444.67,1173.17 1444.67,1244.83 1444,1316.5C 1440.2,1332.79 1430.37,1343.46 1414.5,1348.5 Z"/></g>
<g><path style="opacity:0.999" fill="#152344" d="M 1604.5,1067.5 C 1633.22,1065.82 1660.88,1070.32 1687.5,1081C 1709.24,1091.07 1724.41,1107.24 1733,1129.5C 1734.56,1150.28 1724.9,1161.61 1704,1163.5C 1697.19,1163.12 1691.02,1160.95 1685.5,1157C 1679.36,1151.04 1673.7,1144.71 1668.5,1138C 1646.32,1121.93 1621.98,1117.93 1595.5,1126C 1581.55,1131.06 1575.72,1140.9 1578,1155.5C 1579.03,1158.54 1580.86,1161.04 1583.5,1163C 1591.12,1166.99 1599.12,1169.99 1607.5,1172C 1626.2,1176.21 1644.86,1180.54 1663.5,1185C 1684.9,1190.2 1703.9,1199.87 1720.5,1214C 1738.58,1233.81 1744.75,1256.97 1739,1283.5C 1731.73,1311.43 1714.23,1329.6 1686.5,1338C 1674.47,1342.06 1662.14,1344.73 1649.5,1346C 1611.1,1350.99 1574.76,1344.66 1540.5,1327C 1521.36,1316.2 1507.53,1300.7 1499,1280.5C 1495.7,1261.41 1503.54,1250.08 1522.5,1246.5C 1529.49,1247.33 1535.82,1249.83 1541.5,1254C 1551.46,1262.3 1561.13,1270.96 1570.5,1280C 1587.18,1292.01 1605.84,1297.51 1626.5,1296.5C 1640.82,1297.34 1654.49,1294.84 1667.5,1289C 1679.02,1280.37 1681.52,1269.54 1675,1256.5C 1672.8,1253.96 1670.3,1251.79 1667.5,1250C 1659.16,1246.08 1650.5,1243.08 1641.5,1241C 1618.1,1235.98 1594.76,1230.65 1571.5,1225C 1553.29,1220.56 1536.62,1212.89 1521.5,1202C 1503.99,1185.5 1497.49,1165.33 1502,1141.5C 1505.72,1122.11 1515.56,1106.61 1531.5,1095C 1553.63,1079.89 1577.96,1070.72 1604.5,1067.5 Z"/></g>
</svg>
